<?xml version="1.0" standalone="no"?>
<!DOCTYPE svg PUBLIC "-//W3C//DTD SVG 20010904//EN"
 "http://www.w3.org/TR/2001/REC-SVG-20010904/DTD/svg10.dtd">
<svg version="1.0" xmlns="http://www.w3.org/2000/svg"
 width="200.000000pt" height="200.000000pt" viewBox="0 0 200.000000 200.000000"
 preserveAspectRatio="xMidYMid meet">
<metadata>
Created by potrace 1.14, written by Peter Selinger 2001-2017
</metadata>
<g transform="translate(0.000000,200.000000) scale(0.100000,-0.100000)"
fill="#000000" stroke="none">
<path d="M833 1985 c-40 -7 -98 -21 -128 -30 l-55 -18 0 -46 c0 -136 -47 -267
-126 -351 -26 -28 -107 -90 -178 -137 -148 -97 -214 -160 -257 -245 -81 -160
-91 -353 -26 -507 l14 -32 13 72 c21 123 68 243 133 347 51 80 153 168 329
285 95 63 196 139 225 168 63 63 116 167 135 264 16 80 18 237 3 241 -5 1 -43
-4 -82 -11z"/>
<path d="M1019 1983 c-7 -197 -13 -243 -41 -328 -52 -157 -134 -246 -364 -398
-175 -115 -244 -172 -298 -246 -63 -86 -116 -210 -132 -311 -3 -19 -8 -38 -10
-41 -2 -3 -6 -41 -9 -85 -4 -43 -8 -84 -10 -91 -2 -6 10 -31 27 -55 70 -97
155 -185 146 -151 -6 21 15 148 37 230 61 230 152 356 405 558 240 193 329
319 380 538 31 137 47 359 25 377 -7 5 -44 13 -84 16 -64 5 -71 3 -72 -13z"/>
<path d="M1274 1928 c-3 -110 -8 -196 -15 -232 -4 -23 -10 -57 -13 -76 -7 -50
-44 -167 -68 -220 -64 -140 -143 -230 -353 -405 -93 -78 -192 -168 -218 -200
-114 -138 -175 -308 -193 -530 l-6 -72 64 -39 c34 -22 84 -49 110 -61 l48 -23
4 23 c3 12 9 60 15 107 41 331 143 504 441 742 246 196 348 353 386 593 3 22
8 43 10 47 2 3 7 69 10 145 l7 139 -54 26 c-59 29 -155 68 -167 68 -4 0 -8
-15 -8 -32z"/>
<path d="M535 1885 c-117 -71 -171 -111 -235 -175 -73 -73 -159 -189 -192
-260 -34 -71 -57 -130 -67 -167 l-10 -38 21 29 c52 69 115 120 301 241 77 50
132 106 161 163 27 53 50 153 44 194 -3 23 -5 24 -23 13z"/>
<path d="M1589 1758 c-4 -182 -48 -387 -111 -513 -64 -128 -145 -221 -313
-357 -197 -161 -268 -238 -332 -358 -55 -102 -97 -272 -106 -423 l-4 -67 41
-11 c23 -5 48 -12 56 -14 8 -3 48 -7 88 -10 55 -4 72 -3 73 7 0 7 2 22 4 33 2
11 6 45 9 75 9 91 44 217 81 298 60 128 132 213 300 351 265 219 337 328 379
580 13 74 21 210 17 276 -1 19 -155 175 -172 175 -5 0 -9 -19 -10 -42z"/>
<path d="M1860 1473 c0 -60 -31 -227 -55 -301 -56 -165 -164 -306 -350 -452
-107 -84 -222 -204 -264 -273 -59 -100 -105 -259 -115 -394 l-3 -52 35 5 c90
11 173 30 218 49 31 13 34 18 35 57 2 159 52 302 139 401 23 26 99 85 169 131
178 117 225 168 264 287 37 110 44 297 15 384 -20 60 -77 185 -84 185 -2 0 -4
-12 -4 -27z"/>
<path d="M1950 766 c-33 -54 -119 -127 -227 -194 -147 -90 -203 -153 -241
-270 -21 -63 -39 -192 -27 -192 4 0 46 25 93 56 148 96 293 263 359 413 38 84
80 221 68 221 -2 0 -13 -15 -25 -34z"/>
</g>
</svg>
